{
  "accessors": [
    {
      "bufferView": 2,
      "componentType": 5126,
      "count": 1758,
      "max": [
        3.2711989879608154,
        21.93259048461914,
        3.113231897354126
      ],
      "min": [
        -2.4904000759124756,
        11.264026641845703,
        -4.590733051300049
      ],
      "type": "VEC3"
    },
    {
      "bufferView": 2,
      "byteOffset": 21096,
      "componentType": 5126,
      "count": 1758,
      "max": [
        1.0,
        1.0,
        1.0
      ],
      "min": [
        -1.0,
        -1.0,
        -1.0
      ],
      "type": "VEC3"
    },
    {
      "bufferView": 3,
      "componentType": 5126,
      "count": 1758,
      "max": [
        0.9999825358390808,
        1.0,
        1.0,
        1.0
      ],
      "min": [
        -0.8491242527961731,
        -1.0,
        -1.0,
        1.0
      ],
      "type": "VEC4"
    },
    {
      "bufferView": 1,
      "componentType": 5126,
      "count": 1758,
      "max": [
        0.9978809952735901,
        0.8168439865112305
      ],
      "min": [
        0.0019920000340789557,
        0.0042489999905228615
      ],
      "type": "VEC2"
    },
    {
      "bufferView": 0,
      "componentType": 5125,
      "count": 6864,
      "type": "SCALAR"
    },
    {
      "bufferView": 2,
      "byteOffset": 42192,
      "componentType": 5126,
      "count": 1202,
      "max": [
        3.701517105102539,
        19.90140151977539,
        -0.35877299308776855
      ],
      "min": [
        -2.9030470848083496,
        13.296838760375977,
        -1.106564998626709
      ],
      "type": "VEC3"
    },
    {
      "bufferView": 2,
      "byteOffset": 56616,
      "componentType": 5126,
      "count": 1202,
      "max": [
        1.0,
        1.0,
        1.0
      ],
      "min": [
        -1.0,
        -1.0,
        -1.0
      ],
      "type": "VEC3"
    },
    {
      "bufferView": 3,
      "byteOffset": 28128,
      "componentType": 5126,
      "count": 1202,
      "max": [
        1.0,
        1.0,
        1.0,
        1.0
      ],
      "min": [
        -0.8090184330940247,
        -1.0,
        -1.0,
        -1.0
      ],
      "type": "VEC4"
    },
    {
      "bufferView": 1,
      "byteOffset": 14064,
      "componentType": 5126,
      "count": 1202,
      "max": [
        0.9696980118751526,
        0.6017169952392578
      ],
      "min": [
        0.0019920000340789557,
        0.023524999618530273
      ],
      "type": "VEC2"
    },
    {
      "bufferView": 0,
      "byteOffset": 27456,
      "componentType": 5125,
      "count": 4584,
      "type": "SCALAR"
    },
    {
      "bufferView": 2,
      "byteOffset": 71040,
      "componentType": 5126,
      "count": 578,
      "max": [
        -9.472413063049316,
        7.705544948577881,
        4.3620171546936035
      ],
      "min": [
        -11.674640655517578,
        6.036812782287598,
        2.159787893295288
      ],
      "type": "VEC3"
    },
    {
      "bufferView": 2,
      "byteOffset": 77976,
      "componentType": 5126,
      "count": 578,
      "max": [
        0.999987781047821,
        1.0,
        0.9998656511306763
      ],
      "min": [
        -0.999987781047821,
        -1.0,
        -0.999987781047821
      ],
      "type": "VEC3"
    },
    {
      "bufferView": 3,
      "byteOffset": 47360,
      "componentType": 5126,
      "count": 578,
      "max": [
        0.9999603629112244,
        0.3155537545681,
        0.9999925494194031,
        1.0
      ],
      "min": [
        -0.9999924302101135,
        -0.24142779409885406,
        -0.9999925494194031,
        1.0
      ],
      "type": "VEC4"
    },
    {
      "bufferView": 1,
      "byteOffset": 23680,
      "componentType": 5126,
      "count": 578,
      "max": [
        1.0,
        1.0
      ],
      "min": [
        0.0,
        0.0
      ],
      "type": "VEC2"
    },
    {
      "bufferView": 0,
      "byteOffset": 45792,
      "componentType": 5125,
      "count": 2976,
      "type": "SCALAR"
    },
    {
      "bufferView": 2,
      "byteOffset": 84912,
      "componentType": 5126,
      "count": 732,
      "max": [
        8.369906425476074,
        0.9095569849014282,
        8.36990737915039
      ],
      "min": [
        -8.369905471801758,
        -0.8964120149612427,
        -8.369902610778809
      ],
      "type": "VEC3"
    },
    {
      "bufferView": 2,
      "byteOffset": 93696,
      "componentType": 5126,
      "count": 732,
      "max": [
        1.0,
        0.9614138603210449,
        1.0
      ],
      "min": [
        -1.0,
        -0.8334348797798157,
        -1.0
      ],
      "type": "VEC3"
    },
    {
      "bufferView": 3,
      "byteOffset": 56608,
      "componentType": 5126,
      "count": 732,
      "max": [
        0.999994158744812,
        1.0,
        0.9999776482582092,
        1.0
      ],
      "min": [
        -0.8479484915733337,
        -1.0,
        -0.5178945660591125,
        1.0
      ],
      "type": "VEC4"
    },
    {
      "bufferView": 1,
      "byteOffset": 28304,
      "componentType": 5126,
      "count": 732,
      "max": [
        0.9680609703063965,
        0.8412730097770691
      ],
      "min": [
        0.16607600450515747,
        0.0016820000018924475
      ],
      "type": "VEC2"
    },
    {
      "bufferView": 0,
      "byteOffset": 57696,
      "componentType": 5125,
      "count": 2304,
      "type": "SCALAR"
    },
    {
      "bufferView": 2,
      "byteOffset": 102480,
      "componentType": 5126,
      "count": 732,
      "max": [
        8.36990737915039,
        0.9095569849014282,
        8.369905471801758
      ],
      "min": [
        -8.369905471801758,
        -0.8964160084724426,
        -8.369903564453125
      ],
      "type": "VEC3"
    },
    {
      "bufferView": 2,
      "byteOffset": 111264,
      "componentType": 5126,
      "count": 732,
      "max": [
        1.0,
        0.9614138603210449,
        1.0
      ],
      "min": [
        -1.0,
        -0.8334348797798157,
        -1.0
      ],
      "type": "VEC3"
    },
    {
      "bufferView": 3,
      "byteOffset": 68320,
      "componentType": 5126,
      "count": 732,
      "max": [
        0.999994158744812,
        1.0,
        0.9999777674674988,
        1.0
      ],
      "min": [
        -0.8479468822479248,
        -1.0,
        -0.5178924798965454,
        1.0
      ],
      "type": "VEC4"
    },
    {
      "bufferView": 1,
      "byteOffset": 34160,
      "componentType": 5126,
      "count": 732,
      "max": [
        0.9971219897270203,
        0.8295530080795288
      ],
      "min": [
        0.17779600620269775,
        0.0016820000018924475
      ],
      "type": "VEC2"
    },
    {
      "bufferView": 0,
      "byteOffset": 66912,
      "componentType": 5125,
      "count": 2304,
      "type": "SCALAR"
    },
    {
      "bufferView": 2,
      "byteOffset": 120048,
      "componentType": 5126,
      "count": 708,
      "max": [
        7.961345195770264,
        0.7952589988708496,
        7.961345195770264
      ],
      "min": [
        -7.961341857910156,
        -0.8336849808692932,
        -7.961341857910156
      ],
      "type": "VEC3"
    },
    {
      "bufferView": 2,
      "byteOffset": 128544,
      "componentType": 5126,
      "count": 708,
      "max": [
        1.0,
        0.9958820939064026,
        1.0
      ],
      "min": [
        -1.0,
        -0.956129252910614,
        -1.0
      ],
      "type": "VEC3"
    },
    {
      "bufferView": 3,
      "byteOffset": 80032,
      "componentType": 5126,
      "count": 708,
      "max": [
        0.9565194845199585,
        1.0,
        0.9999979138374329,
        1.0
      ],
      "min": [
        -0.9564831852912903,
        -1.0,
        -1.0,
        1.0
      ],
      "type": "VEC4"
    },
    {
      "bufferView": 1,
      "byteOffset": 40016,
      "componentType": 5126,
      "count": 708,
      "max": [
        0.9980080127716064,
        0.8426600098609924
      ],
      "min": [
        0.0019920000340789557,
        0.0017790000420063734
      ],
      "type": "VEC2"
    },
    {
      "bufferView": 0,
      "byteOffset": 76128,
      "componentType": 5125,
      "count": 2304,
      "type": "SCALAR"
    },
    {
      "bufferView": 2,
      "byteOffset": 137040,
      "componentType": 5126,
      "count": 6193,
      "max": [
        -5.772785186767578,
        9.447604179382324,
        8.065959930419922
      ],
      "min": [
        -15.374268531799316,
        0.31550899147987366,
        -1.5441579818725586
      ],
      "type": "VEC3"
    },
    {
      "bufferView": 2,
      "byteOffset": 211356,
      "componentType": 5126,
      "count": 6193,
      "max": [
        0.9999352097511292,
        1.0,
        0.9999984502792358
      ],
      "min": [
        -0.9999353289604187,
        -1.0,
        -0.9999984502792358
      ],
      "type": "VEC3"
    },
    {
      "bufferView": 3,
      "byteOffset": 91360,
      "componentType": 5126,
      "count": 6193,
      "max": [
        1.0,
        0.9999987483024597,
        1.0,
        1.0
      ],
      "min": [
        -0.9998887777328491,
        -0.9999986886978149,
        -1.0,
        -1.0
      ],
      "type": "VEC4"
    },
    {
      "bufferView": 1,
      "byteOffset": 45680,
      "componentType": 5126,
      "count": 6193,
      "max": [
        0.9988999962806702,
        0.9980080127716064
      ],
      "min": [
        0.0018550000386312604,
        0.037967998534440994
      ],
      "type": "VEC2"
    },
    {
      "bufferView": 0,
      "byteOffset": 85344,
      "componentType": 5125,
      "count": 14850,
      "type": "SCALAR"
    },
    {
      "bufferView": 2,
      "byteOffset": 285672,
      "componentType": 5126,
      "count": 1242,
      "max": [
        8.696287155151367,
        8.088644981384277,
        -46.651023864746094
      ],
      "min": [
        -16.438936233520508,
        0.0,
        -69.39557647705078
      ],
      "type": "VEC3"
    },
    {
      "bufferView": 2,
      "byteOffset": 300576,
      "componentType": 5126,
      "count": 1242,
      "max": [
        0.9988889098167419,
        0.9999996423721313,
        0.9982263445854187
      ],
      "min": [
        -0.9987145066261292,
        -0.9999980926513672,
        -0.9980931282043457
      ],
      "type": "VEC3"
    },
    {
      "bufferView": 3,
      "byteOffset": 190448,
      "componentType": 5126,
      "count": 1242,
      "max": [
        0.9994982481002808,
        1.0,
        0.9816843271255493,
        1.0
      ],
      "min": [
        -0.9930537343025208,
        -1.0,
        -1.0,
        -1.0
      ],
      "type": "VEC4"
    },
    {
      "bufferView": 1,
      "byteOffset": 95224,
      "componentType": 5126,
      "count": 1242,
      "max": [
        0.9809510111808777,
        0.7250030040740967
      ],
      "min": [
        0.0019920000340789557,
        0.0018660000059753656
      ],
      "type": "VEC2"
    },
    {
      "bufferView": 0,
      "byteOffset": 144744,
      "componentType": 5125,
      "count": 5640,
      "type": "SCALAR"
    }
  ],
  "asset": {
    "extras": {
      "author": "lavakongen (https://sketchfab.com/lavakongen)",
      "license": "CC-BY-4.0 (http://creativecommons.org/licenses/by/4.0/)",
      "source": "https://sketchfab.com/3d-models/lunar-globe-a1ebd09f35fb4e1eae497c73bf1114d2",
      "title": "Lunar Globe"
    },
    "generator": "Sketchfab-13.31.0",
    "version": "2.0"
  },
  "bufferViews": [
    {
      "buffer": 0,
      "byteLength": 167304,
      "name": "floatBufferViews",
      "target": 34963
    },
    {
      "buffer": 0,
      "byteLength": 105160,
      "byteOffset": 167304,
      "byteStride": 8,
      "name": "floatBufferViews",
      "target": 34962
    },
    {
      "buffer": 0,
      "byteLength": 315480,
      "byteOffset": 272464,
      "byteStride": 12,
      "name": "floatBufferViews",
      "target": 34962
    },
    {
      "buffer": 0,
      "byteLength": 210320,
      "byteOffset": 587944,
      "byteStride": 16,
      "name": "floatBufferViews",
      "target": 34962
    }
  ],
  "buffers": [
    {
      "byteLength": 798264,
      "uri": "scene.bin"
    }
  ],
  "images": [
    {
      "uri": "textures/moonpillar_baseColor.jpeg"
    },
    {
      "uri": "textures/moonpillar_metallicRoughness.png"
    },
    {
      "uri": "textures/moonpillar_normal.png"
    },
    {
      "uri": "textures/moonring_baseColor.png"
    },
    {
      "uri": "textures/moonring_metallicRoughness.png"
    },
    {
      "uri": "textures/moonring_emissive.jpeg"
    },
    {
      "uri": "textures/moonring_normal.png"
    },
    {
      "uri": "textures/mooncrystal_baseColor.png"
    },
    {
      "uri": "textures/mooncrystal_metallicRoughness.png"
    },
    {
      "uri": "textures/mooncrystal_emissive.jpeg"
    },
    {
      "uri": "textures/mooncrystal_normal.png"
    }
  ],
  "materials": [
    {
      "doubleSided": true,
      "name": "moonpillar",
      "normalTexture": {
        "index": 2
      },
      "occlusionTexture": {
        "index": 1
      },
      "pbrMetallicRoughness": {
        "baseColorTexture": {
          "index": 0
        },
        "metallicRoughnessTexture": {
          "index": 1
        }
      }
    },
    {
      "alphaMode": "BLEND",
      "doubleSided": true,
      "emissiveFactor": [
        1.0,
        1.0,
        1.0
      ],
      "emissiveTexture": {
        "index": 5
      },
      "name": "moonring",
      "normalTexture": {
        "index": 6
      },
      "occlusionTexture": {
        "index": 4
      },
      "pbrMetallicRoughness": {
        "baseColorTexture": {
          "index": 3
        },
        "metallicRoughnessTexture": {
          "index": 4
        }
      }
    },
    {
      "alphaMode": "BLEND",
      "doubleSided": true,
      "emissiveFactor": [
        1.0,
        1.0,
        1.0
      ],
      "emissiveTexture": {
        "index": 9
      },
      "name": "mooncrystal",
      "normalTexture": {
        "index": 10
      },
      "occlusionTexture": {
        "index": 8
      },
      "pbrMetallicRoughness": {
        "baseColorTexture": {
          "index": 7
        },
        "metallicRoughnessTexture": {
          "index": 8
        }
      }
    }
  ],
  "meshes": [
    {
      "name": "defaultMaterial",
      "primitives": [
        {
          "attributes": {
            "NORMAL": 1,
            "POSITION": 0,
            "TANGENT": 2,
            "TEXCOORD_0": 3
          },
          "indices": 4,
          "material": 1,
          "mode": 4
        }
      ]
    },
    {
      "name": "defaultMaterial",
      "primitives": [
        {
          "attributes": {
            "NORMAL": 6,
            "POSITION": 5,
            "TANGENT": 7,
            "TEXCOORD_0": 8
          },
          "indices": 9,
          "material": 1,
          "mode": 4
        }
      ]
    },
    {
      "name": "defaultMaterial",
      "primitives": [
        {
          "attributes": {
            "NORMAL": 11,
            "POSITION": 10,
            "TANGENT": 12,
            "TEXCOORD_0": 13
          },
          "indices": 14,
          "material": 2,
          "mode": 4
        }
      ]
    },
    {
      "name": "defaultMaterial",
      "primitives": [
        {
          "attributes": {
            "NORMAL": 16,
            "POSITION": 15,
            "TANGENT": 17,
            "TEXCOORD_0": 18
          },
          "indices": 19,
          "material": 1,
          "mode": 4
        }
      ]
    },
    {
      "name": "defaultMaterial",
      "primitives": [
        {
          "attributes": {
            "NORMAL": 21,
            "POSITION": 20,
            "TANGENT": 22,
            "TEXCOORD_0": 23
          },
          "indices": 24,
          "material": 1,
          "mode": 4
        }
      ]
    },
    {
      "name": "defaultMaterial",
      "primitives": [
        {
          "attributes": {
            "NORMAL": 26,
            "POSITION": 25,
            "TANGENT": 27,
            "TEXCOORD_0": 28
          },
          "indices": 29,
          "material": 1,
          "mode": 4
        }
      ]
    },
    {
      "name": "defaultMaterial",
      "primitives": [
        {
          "attributes": {
            "NORMAL": 31,
            "POSITION": 30,
            "TANGENT": 32,
            "TEXCOORD_0": 33
          },
          "indices": 34,
          "material": 0,
          "mode": 4
        }
      ]
    },
    {
      "name": "defaultMaterial",
      "primitives": [
        {
          "attributes": {
            "NORMAL": 36,
            "POSITION": 35,
            "TANGENT": 37,
            "TEXCOORD_0": 38
          },
          "indices": 39,
          "material": 0,
          "mode": 4
        }
      ]
    }
  ],
  "nodes": [
    {
      "children": [
        1
      ],
      "matrix": [
        1.0,
        0.0,
        0.0,
        0.0,
        0.0,
        2.220446049250313e-16,
        -1.0,
        0.0,
        0.0,
        1.0,
        2.220446049250313e-16,
        0.0,
        0.0,
        0.0,
        0.0,
        1.0
      ],
      "name": "Sketchfab_model"
    },
    {
      "children": [
        2,
        4,
        6,
        8,
        10,
        12,
        14,
        16
      ],
      "matrix": [
        1.0,
        0.0,
        0.0,
        0.0,
        0.0,
        -4.371139006309477e-08,
        0.999999999999999,
        0.0,
        0.0,
        -0.999999999999999,
        -4.371139006309477e-08,
        0.0,
        0.0,
        0.0,
        0.0,
        1.0
      ],
      "name": "Collada visual scene group"
    },
    {
      "children": [
        3
      ],
      "name": "pSphere12"
    },
    {
      "mesh": 0,
      "name": "defaultMaterial"
    },
    {
      "children": [
        5
      ],
      "name": "pCylinder23"
    },
    {
      "mesh": 1,
      "name": "defaultMaterial"
    },
    {
      "children": [
        7
      ],
      "matrix": [
        1.0,
        0.0,
        0.0,
        0.0,
        0.0,
        1.0,
        0.0,
        0.0,
        0.0,
        0.0,
        1.0,
        0.0,
        10.81411,
        0.0,
        -4.058213,
        1.0
      ],
      "name": "pSphere10"
    },
    {
      "mesh": 2,
      "name": "defaultMaterial"
    },
    {
      "children": [
        9
      ],
      "matrix": [
        0.0,
        0.0,
        0.193274,
        0.0,
        0.071753,
        -0.052131,
        0.0,
        0.0,
        0.113604,
        0.156362,
        0.0,
        0.0,
        0.399235,
        16.599119,
        -0.741281,
        1.0
      ],
      "name": "pCylinder22"
    },
    {
      "mesh": 3,
      "name": "defaultMaterial"
    },
    {
      "children": [
        11
      ],
      "matrix": [
        0.0,
        0.0,
        0.218493,
        0.0,
        0.028158,
        0.038756,
        0.0,
        0.0,
        -0.176764,
        0.128427,
        0.0,
        0.0,
        0.399235,
        16.599119,
        -0.741281,
        1.0
      ],
      "name": "pCylinder21"
    },
    {
      "mesh": 4,
      "name": "defaultMaterial"
    },
    {
      "children": [
        13
      ],
      "matrix": [
        0.517418,
        0.0,
        0.0,
        0.0,
        0.0,
        0.147451,
        0.0,
        0.0,
        0.0,
        0.0,
        0.517418,
        0.0,
        0.399235,
        16.599119,
        -0.741281,
        1.0
      ],
      "name": "pCylinder20"
    },
    {
      "mesh": 5,
      "name": "defaultMaterial"
    },
    {
      "children": [
        15
      ],
      "matrix": [
        1.0,
        0.0,
        0.0,
        0.0,
        0.0,
        1.0,
        0.0,
        0.0,
        0.0,
        0.0,
        1.0,
        0.0,
        10.81411,
        0.0,
        -4.058213,
        1.0
      ],
      "name": "pCylinder17"
    },
    {
      "mesh": 6,
      "name": "defaultMaterial"
    },
    {
      "children": [
        17
      ],
      "matrix": [
        0.0,
        0.583578,
        0.0,
        0.0,
        0.0,
        0.0,
        -0.161664,
        0.0,
        -0.583578,
        0.0,
        0.0,
        0.0,
        -32.378048,
        18.810303,
        -0.073052,
        1.0
      ],
      "name": "pCylinder16"
    },
    {
      "mesh": 7,
      "name": "defaultMaterial"
    }
  ],
  "samplers": [
    {
      "magFilter": 9729,
      "minFilter": 9987,
      "wrapS": 10497,
      "wrapT": 10497
    }
  ],
  "scene": 0,
  "scenes": [
    {
      "name": "Sketchfab_Scene",
      "nodes": [
        0
      ]
    }
  ],
  "textures": [
    {
      "sampler": 0,
      "source": 0
    },
    {
      "sampler": 0,
      "source": 1
    },
    {
      "sampler": 0,
      "source": 2
    },
    {
      "sampler": 0,
      "source": 3
    },
    {
      "sampler": 0,
      "source": 4
    },
    {
      "sampler": 0,
      "source": 5
    },
    {
      "sampler": 0,
      "source": 6
    },
    {
      "sampler": 0,
      "source": 7
    },
    {
      "sampler": 0,
      "source": 8
    },
    {
      "sampler": 0,
      "source": 9
    },
    {
      "sampler": 0,
      "source": 10
    }
  ]
}
